HIERARCHY
ROOT __0
{
	OFFSET 0.0 0.0 0.0
	CHANNELS 0
	JOINT Hips
	{
		OFFSET 0.000000 0.000000 0.000000
		CHANNELS 6 Xposition Yposition Zposition Xrotation Yrotation Zrotation
		JOINT Spine
		{
			OFFSET 10.005940 -0.000000 0.000014
			CHANNELS 6 Xposition Yposition Zposition Xrotation Yrotation Zrotation
			JOINT Spine1
			{
				OFFSET 21.665001 -0.000000 -0.000000
				CHANNELS 6 Xposition Yposition Zposition Xrotation Yrotation Zrotation
				JOINT Neck
				{
					OFFSET 25.833000 0.000000 -0.000000
					CHANNELS 6 Xposition Yposition Zposition Xrotation Yrotation Zrotation
					JOINT Head
					{
						OFFSET 14.033596 -0.000000 0.000000
						CHANNELS 6 Xposition Yposition Zposition Xrotation Yrotation Zrotation
						JOINT HeadNub
						{
							OFFSET 21.600510 0.000000 0.000000
							CHANNELS 6 Xposition Yposition Zposition Xrotation Yrotation Zrotation
							End Site
							{
								OFFSET 0.000000 21.600510 0.000000
							}
						}
					}
				}
				JOINT LeftShoulder
				{
					OFFSET 21.665001 -0.000000 3.045000
					CHANNELS 6 Xposition Yposition Zposition Xrotation Yrotation Zrotation
					JOINT LeftArm
					{
						OFFSET 0.000000 -0.000000 15.550001
						CHANNELS 6 Xposition Yposition Zposition Xrotation Yrotation Zrotation
						JOINT LeftForeArm
						{
							OFFSET -19.070633 0.000002 19.070707
							CHANNELS 6 Xposition Yposition Zposition Xrotation Yrotation Zrotation
							JOINT LeftHand
							{
								OFFSET -18.782471 0.000001 18.782467
								CHANNELS 6 Xposition Yposition Zposition Xrotation Yrotation Zrotation
								JOINT LeftHandThumb1
								{
									OFFSET -4.939494 -1.249041 0.422050
									CHANNELS 6 Xposition Yposition Zposition Xrotation Yrotation Zrotation
									JOINT LeftHandThumb2
									{
										OFFSET -2.517302 0.000000 2.517300
										CHANNELS 6 Xposition Yposition Zposition Xrotation Yrotation Zrotation
										JOINT LeftHandThumb3
										{
											OFFSET -1.826117 0.000000 1.826115
											CHANNELS 6 Xposition Yposition Zposition Xrotation Yrotation Zrotation
											End Site
											{
												OFFSET 0.000000 -2.582519 0.000000
											}
										}
									}
								}
								JOINT LeftHandIndex1
								{
									OFFSET -8.597697 0.000001 5.278145
									CHANNELS 6 Xposition Yposition Zposition Xrotation Yrotation Zrotation
									JOINT LeftHandIndex2
									{
										OFFSET -2.302887 0.000000 2.302887
										CHANNELS 6 Xposition Yposition Zposition Xrotation Yrotation Zrotation
										JOINT LeftHandIndex3
										{
											OFFSET -1.960194 0.000000 1.960197
											CHANNELS 6 Xposition Yposition Zposition Xrotation Yrotation Zrotation
											End Site
											{
												OFFSET -0.000000 -2.772133 0.000000
											}
										}
									}
								}
								JOINT LeftHandMiddle1
								{
									OFFSET -7.533892 0.000001 7.091263
									CHANNELS 6 Xposition Yposition Zposition Xrotation Yrotation Zrotation
									JOINT LeftHandMiddle2
									{
										OFFSET -2.425842 0.000000 2.425842
										CHANNELS 6 Xposition Yposition Zposition Xrotation Yrotation Zrotation
										JOINT LeftHandMiddle3
										{
											OFFSET -2.089242 0.000000 2.089241
											CHANNELS 6 Xposition Yposition Zposition Xrotation Yrotation Zrotation
											End Site
											{
												OFFSET -0.000000 -2.954633 0.000000
											}
										}
									}
								}
								JOINT LeftHandRing1
								{
									OFFSET -5.804094 0.000001 8.321640
									CHANNELS 6 Xposition Yposition Zposition Xrotation Yrotation Zrotation
									JOINT LeftHandRing2
									{
										OFFSET -2.291877 0.000000 2.291878
										CHANNELS 6 Xposition Yposition Zposition Xrotation Yrotation Zrotation
										JOINT LeftHandRing3
										{
											OFFSET -1.953971 0.000000 1.953972
											CHANNELS 6 Xposition Yposition Zposition Xrotation Yrotation Zrotation
											End Site
											{
												OFFSET -0.000000 -2.763332 0.000000
											}
										}
									}
								}
								JOINT LeftHandPinky1
								{
									OFFSET -3.770287 0.000000 8.934921
									CHANNELS 6 Xposition Yposition Zposition Xrotation Yrotation Zrotation
									JOINT LeftHandPinky2
									{
										OFFSET -1.968662 0.000000 1.968666
										CHANNELS 6 Xposition Yposition Zposition Xrotation Yrotation Zrotation
										JOINT LeftHandPinky3
										{
											OFFSET -1.410385 0.000000 1.410385
											CHANNELS 6 Xposition Yposition Zposition Xrotation Yrotation Zrotation
											End Site
											{
												OFFSET 0.000000 -1.994586 0.000000
											}
										}
									}
								}
							}
						}
					}
				}
				JOINT RightShoulder
				{
					OFFSET 21.665001 -0.000000 -3.045000
					CHANNELS 6 Xposition Yposition Zposition Xrotation Yrotation Zrotation
					JOINT RightArm
					{
						OFFSET 0.000057 -0.000000 -15.549999
						CHANNELS 6 Xposition Yposition Zposition Xrotation Yrotation Zrotation
						JOINT RightForeArm
						{
							OFFSET -19.070633 0.000002 -19.070709
							CHANNELS 6 Xposition Yposition Zposition Xrotation Yrotation Zrotation
							JOINT RightHand
							{
								OFFSET -18.782467 0.000002 -18.782467
								CHANNELS 6 Xposition Yposition Zposition Xrotation Yrotation Zrotation
								JOINT RightHandThumb1
								{
									OFFSET -4.939487 -1.249050 -0.422047
									CHANNELS 6 Xposition Yposition Zposition Xrotation Yrotation Zrotation
									JOINT RightHandThumb2
									{
										OFFSET -2.517301 0.000000 -2.517300
										CHANNELS 6 Xposition Yposition Zposition Xrotation Yrotation Zrotation
										JOINT RightHandThumb3
										{
											OFFSET -1.826117 0.000000 -1.826115
											CHANNELS 6 Xposition Yposition Zposition Xrotation Yrotation Zrotation
											End Site
											{
												OFFSET 0.000000 -2.582519 0.000000
											}
										}
									}
								}
								JOINT RightHandIndex1
								{
									OFFSET -8.597696 -0.000003 -5.278137
									CHANNELS 6 Xposition Yposition Zposition Xrotation Yrotation Zrotation
									JOINT RightHandIndex2
									{
										OFFSET -2.302887 0.000000 -2.302883
										CHANNELS 6 Xposition Yposition Zposition Xrotation Yrotation Zrotation
										JOINT RightHandIndex3
										{
											OFFSET -1.960194 0.000000 -1.960197
											CHANNELS 6 Xposition Yposition Zposition Xrotation Yrotation Zrotation
											End Site
											{
												OFFSET -0.000000 -2.772133 0.000000
											}
										}
									}
								}
								JOINT RightHandMiddle1
								{
									OFFSET -7.533897 -0.000002 -7.091248
									CHANNELS 6 Xposition Yposition Zposition Xrotation Yrotation Zrotation
									JOINT RightHandMiddle2
									{
										OFFSET -2.425842 0.000000 -2.425838
										CHANNELS 6 Xposition Yposition Zposition Xrotation Yrotation Zrotation
										JOINT RightHandMiddle3
										{
											OFFSET -2.089242 0.000000 -2.089241
											CHANNELS 6 Xposition Yposition Zposition Xrotation Yrotation Zrotation
											End Site
											{
												OFFSET -0.000000 -2.954633 0.000000
											}
										}
									}
								}
								JOINT RightHandRing1
								{
									OFFSET -5.804094 -0.000003 -8.321636
									CHANNELS 6 Xposition Yposition Zposition Xrotation Yrotation Zrotation
									JOINT RightHandRing2
									{
										OFFSET -2.291877 0.000000 -2.291878
										CHANNELS 6 Xposition Yposition Zposition Xrotation Yrotation Zrotation
										JOINT RightHandRing3
										{
											OFFSET -1.953971 0.000000 -1.953972
											CHANNELS 6 Xposition Yposition Zposition Xrotation Yrotation Zrotation
											End Site
											{
												OFFSET -0.000000 -2.763332 0.000000
											}
										}
									}
								}
								JOINT RightHandPinky1
								{
									OFFSET -3.770285 -0.000004 -8.934925
									CHANNELS 6 Xposition Yposition Zposition Xrotation Yrotation Zrotation
									JOINT RightHandPinky2
									{
										OFFSET -1.968663 0.000000 -1.968666
										CHANNELS 6 Xposition Yposition Zposition Xrotation Yrotation Zrotation
										JOINT RightHandPinky3
										{
											OFFSET -1.410385 0.000000 -1.410385
											CHANNELS 6 Xposition Yposition Zposition Xrotation Yrotation Zrotation
											End Site
											{
												OFFSET 0.000000 -1.994586 0.000000
											}
										}
									}
								}
							}
						}
					}
				}
			}
		}
		JOINT LeftUpLeg
		{
			OFFSET -0.000015 0.000018 9.994125
			CHANNELS 6 Xposition Yposition Zposition Xrotation Yrotation Zrotation
			JOINT LeftLeg
			{
				OFFSET 41.202610 0.000001 0.000001
				CHANNELS 6 Xposition Yposition Zposition Xrotation Yrotation Zrotation
				JOINT LeftFoot
				{
					OFFSET 40.704845 0.000000 -0.000001
					CHANNELS 6 Xposition Yposition Zposition Xrotation Yrotation Zrotation
					JOINT LeftToeBase
					{
						OFFSET 8.953568 12.877190 0.000000
						CHANNELS 6 Xposition Yposition Zposition Xrotation Yrotation Zrotation
						JOINT LeftToeNub
						{
							OFFSET 5.535667 0.000000 0.000000
							CHANNELS 6 Xposition Yposition Zposition Xrotation Yrotation Zrotation
							End Site
							{
								OFFSET 0.000000 5.535664 0.000000
							}
						}
					}
				}
			}
		}
		JOINT RightUpLeg
		{
			OFFSET 0.000015 -0.000010 -9.994125
			CHANNELS 6 Xposition Yposition Zposition Xrotation Yrotation Zrotation
			JOINT RightLeg
			{
				OFFSET 41.202610 0.000000 0.000001
				CHANNELS 6 Xposition Yposition Zposition Xrotation Yrotation Zrotation
				JOINT RightFoot
				{
					OFFSET 40.704845 0.000000 -0.000001
					CHANNELS 6 Xposition Yposition Zposition Xrotation Yrotation Zrotation
					JOINT RightToeBase
					{
						OFFSET 8.953568 12.877190 0.000000
						CHANNELS 6 Xposition Yposition Zposition Xrotation Yrotation Zrotation
						JOINT RightToeNub
						{
							OFFSET 5.535667 0.000000 0.000000
							CHANNELS 6 Xposition Yposition Zposition Xrotation Yrotation Zrotation
							End Site
							{
								OFFSET 0.000000 5.535664 0.000000
							}
						}
					}
				}
			}
		}
	}
	JOINT Prop
	{
		OFFSET 0.000000 0.000000 0.000000
		CHANNELS 6 Xposition Yposition Zposition Xrotation Yrotation Zrotation
		End Site
		{
			OFFSET 0.000000 1.000000 0.000000
		}
	}
}
MOTION
Frames: 4
Frame Time: 0.008333
0.000000 91.195999 0.000000 -0.000000 90.000003 90.000003 10.005943 -0.000000 0.000014 -0.000000 -0.000000 0.000000 21.665012 -0.000000 -0.000000 -0.000000 -0.000000 0.000000 25.833012 0.000000 -0.000000 -0.000000 0.000000 10.000001 14.033573 -0.000000 -0.000000 0.000000 0.000000 -10.000001 21.600525 0.000000 0.000000 -0.000000 -0.000000 0.000000 21.665012 -0.000000 3.045000 -0.000000 -0.000000 0.000000 0.000013 -0.000000 15.549999 0.000008 45.000005 -0.000003 -19.070644 0.000002 19.070696 -0.000001 -0.000005 -0.000001 -18.782459 0.000004 18.782457 54.735616 -29.999997 -54.735620 -4.939493 -1.249037 0.422049 54.735613 -30.000008 -54.735613 -2.517314 0.000000 2.517299 -0.000000 -0.000009 -0.000000 -1.826119 0.000000 1.826122 0.000000 -0.000002 -0.000000 -8.597697 0.000004 5.278145 0.000000 -0.000002 0.000000 -2.302892 -0.000013 2.302886 -0.000000 -0.000005 -0.000000 -1.960190 0.000018 1.960182 -0.000000 -0.000009 0.000000 -7.533890 0.000003 7.091259 -0.000000 -0.000002 -0.000000 -2.425846 -0.000012 2.425849 0.000000 -0.000007 -0.000000 -2.089242 0.000002 2.089264 -0.000000 -0.000003 -0.000000 -5.804088 0.000004 8.321640 0.000000 -0.000002 -0.000000 -2.291874 -0.000013 2.291877 -0.000000 -0.000005 -0.000000 -1.953977 0.000018 1.953980 0.000000 -0.000007 -0.000000 -3.770285 0.000004 8.934914 0.000000 -0.000002 0.000000 -1.968671 0.000004 1.968665 0.000000 -0.000005 0.000000 -1.410387 0.000019 1.410370 0.000000 -0.000009 -0.000000 21.665012 -0.000000 -3.045000 -0.000000 0.000000 0.000000 0.000058 0.000000 -15.549999 0.000233 -44.999936 -0.000003 -19.070620 0.000002 -19.070711 0.000000 -0.000003 -0.000000 -18.782476 0.000004 -18.782463 -54.735620 29.999997 -54.735609 -4.939486 -1.249054 -0.422050 54.735616 30.000004 54.735606 -2.517293 -0.000000 -2.517295 -0.000001 0.000003 0.000001 -1.826101 0.000000 -1.826130 0.000000 0.000000 -0.000000 -8.597705 -0.000016 -5.278141 -0.000000 -0.000002 0.000000 -2.302893 0.000005 -2.302883 0.000000 0.000007 0.000000 -1.960192 0.000008 -1.960197 -0.000000 -0.000005 0.000000 -7.533899 -0.000015 -7.091255 -0.000000 -0.000002 0.000000 -2.425844 0.000006 -2.425838 -0.000000 0.000007 0.000000 -2.089248 0.000009 -2.089256 -0.000000 0.000000 0.000000 -5.804097 -0.000015 -8.321629 -0.000000 -0.000002 -0.000000 -2.291892 0.000006 -2.291884 -0.000000 0.000007 -0.000000 -1.953967 0.000009 -1.953971 0.000000 -0.000005 -0.000000 -3.770288 -0.000015 -8.934925 0.000000 -0.000002 -0.000000 -1.968670 0.000006 -1.968673 0.000000 0.000007 0.000000 -1.410387 -0.000006 -1.410384 0.000000 -0.000005 0.000000 -0.000015 0.000018 9.994126 -0.000107 179.999909 0.000000 41.202618 0.000001 0.000001 -0.000000 -0.000000 0.000000 40.704845 0.000000 -0.000001 -0.000000 0.000006 0.000000 8.953565 12.877192 0.000001 -0.000107 -0.000003 90.000009 5.535667 0.000000 -0.000000 0.000000 -0.000000 -0.000000 0.000015 -0.000010 -9.994124 -0.000107 179.999909 0.000000 41.202602 -0.000000 0.000001 0.000000 0.000000 -0.000001 40.704845 0.000000 -0.000001 -0.000000 0.000006 0.000000 8.953564 12.877185 0.000001 -0.000107 -0.000003 90.000009 5.535667 0.000000 0.000001 0.000000 0.000000 -0.000000 55.280914 0.000000 -0.964944 -0.000008 1.000000 -0.000000 
-3.874781 90.573372 79.376038 1.414782 98.760109 90.660386 10.005937 -0.000004 0.000013 -5.811140 0.811907 3.336918 21.665001 0.000003 0.000000 -6.323755 -1.038688 2.270364 25.833019 0.000011 -0.000000 2.471232 -0.039180 -2.061747 14.033611 -0.000005 0.000000 2.477154 1.740882 -6.357846 21.600510 -0.000011 0.000000 0.000000 -0.000000 -0.000000 21.665028 0.000001 3.045001 5.304934 -19.085447 -6.560018 -0.000003 -0.000004 15.550006 -2.845447 -10.863512 8.170064 -19.070642 0.000004 19.070704 -16.311567 2.353274 -16.311566 -18.782459 -0.000001 18.782457 72.839296 -30.336562 -56.161435 -4.939493 -1.249044 0.422027 54.735609 -30.000008 -54.735606 -2.517296 0.000005 2.517299 -0.000000 -0.000005 -0.000000 -1.826122 -0.000010 1.826119 0.000001 -0.000003 0.000001 -8.597701 0.000000 5.278130 0.000001 -0.000005 0.000000 -2.302893 -0.000003 2.302887 -0.000000 -0.000005 -0.000003 -1.960181 0.000000 1.960182 0.000000 -0.000007 -0.000001 -7.533890 0.000000 7.091244 0.000001 -0.000005 -0.000000 -2.425836 -0.000001 2.425834 -0.000001 -0.000007 -0.000001 -2.089218 0.000001 2.089226 -0.000001 -0.000003 -0.000001 -5.804090 -0.000001 8.321625 0.000001 -0.000005 0.000001 -2.291876 -0.000000 2.291862 -0.000001 -0.000005 -0.000002 -1.953977 -0.000000 1.953964 -0.000001 -0.000002 0.000002 -3.770280 -0.000000 8.934906 0.000000 -0.000003 0.000000 -1.968667 -0.000004 1.968651 0.000000 -0.000002 -0.000001 -1.410386 -0.000001 1.410378 -0.000000 -0.000002 -0.000002 21.665020 0.000010 -3.044999 8.369902 17.781498 -11.298791 0.000063 0.000006 -15.549994 -13.498721 12.462014 3.041754 -19.070629 0.000008 -19.070717 16.734044 -2.478487 -16.734045 -18.782469 0.000014 -18.782465 -66.913451 30.031205 -44.623521 -4.939487 -1.249045 -0.422066 54.735616 30.000004 54.735609 -2.517299 0.000007 -2.517303 0.000001 0.000005 0.000001 -1.826109 0.000002 -1.826103 0.000000 0.000002 -0.000000 -8.597710 -0.000000 -5.278149 0.000000 -0.000005 0.000000 -2.302894 -0.000003 -2.302890 -0.000000 0.000000 0.000001 -1.960189 0.000001 -1.960197 0.000000 -0.000002 0.000000 -7.533915 -0.000002 -7.091263 0.000001 -0.000009 0.000001 -2.425830 -0.000005 -2.425853 0.000000 0.000010 0.000000 -2.089228 -0.000000 -2.089249 -0.000000 0.000000 0.000000 -5.804097 -0.000004 -8.321651 0.000000 -0.000005 0.000001 -2.291893 -0.000002 -2.291869 0.000000 0.000000 0.000001 -1.953966 0.000000 -1.953979 0.000001 0.000000 0.000000 -3.770293 -0.000009 -8.934940 0.000001 -0.000009 0.000000 -1.968657 -0.000001 -1.968680 -0.000000 0.000000 0.000001 -1.410375 0.000006 -1.410385 -0.000001 -0.000003 0.000001 -0.000017 0.000016 9.994125 -11.487963 181.081497 11.321065 41.202602 -0.000003 0.000001 -0.000000 0.000000 -23.944220 40.704838 0.000003 -0.000002 -7.331125 -1.487043 12.783677 8.953555 12.877190 0.000000 -1.952524 -0.951370 93.122512 5.535667 0.000000 0.000002 -0.000000 -0.000000 -0.000000 0.000014 -0.000003 -9.994127 -7.540833 180.355066 7.943737 41.202602 0.000000 0.000000 0.000000 0.000000 -19.948158 40.704838 0.000021 -0.000001 4.072315 -1.142561 14.136247 8.953564 12.877180 -0.000000 3.138350 0.591138 93.968520 5.535675 0.000000 0.000000 0.000000 -0.000000 -0.000000 55.280914 0.000000 -0.964944 -0.000008 1.000000 -0.000000 
-3.921281 90.369148 78.899391 -0.359906 98.505002 92.753600 10.005929 0.000005 0.000014 -5.702927 1.144407 4.226443 21.665009 0.000002 0.000000 -6.383710 -1.013028 2.422307 25.833008 0.000000 -0.000000 2.531068 -0.094685 -2.979760 14.033596 -0.000003 -0.000000 2.525768 1.729695 -6.726938 21.600487 -0.000007 -0.000000 -0.000000 -0.000000 0.000000 21.665007 -0.000004 3.045000 4.471312 -18.662177 -6.834522 0.000005 0.000002 15.550004 -5.619721 -12.330423 8.964601 -19.070641 0.000004 19.070702 -16.546434 2.422461 -16.546434 -18.782461 0.000011 18.782454 74.135536 -32.053801 -56.986321 -4.939489 -1.249045 0.422049 54.735613 -30.000008 -54.735609 -2.517298 -0.000008 2.517300 -0.000000 -0.000003 0.000000 -1.826116 0.000005 1.826119 -0.000001 -0.000000 -0.000000 -8.597692 -0.000001 5.278145 -0.000000 -0.000002 0.000001 -2.302892 0.000001 2.302902 -0.000001 -0.000007 -0.000000 -1.960203 -0.000003 1.960205 -0.000001 -0.000002 -0.000000 -7.533898 -0.000001 7.091251 -0.000000 -0.000000 0.000001 -2.425838 0.000007 2.425858 0.000001 -0.000007 0.000000 -2.089228 0.000000 2.089249 0.000001 -0.000000 0.000000 -5.804099 -0.000001 8.321640 -0.000000 -0.000002 0.000002 -2.291865 0.000002 2.291878 -0.000001 -0.000007 -0.000001 -1.953969 -0.000002 1.953987 0.000000 -0.000000 0.000001 -3.770293 -0.000002 8.934906 -0.000001 -0.000002 0.000001 -1.968659 -0.000005 1.968658 -0.000001 -0.000007 0.000001 -1.410390 -0.000005 1.410408 -0.000000 0.000000 0.000000 21.664995 0.000001 -3.044998 9.118377 17.462654 -11.480946 0.000065 0.000008 -15.549999 -12.218984 13.942118 2.939158 -19.070629 0.000007 -19.070715 16.569421 -2.429304 -16.569428 -18.782476 0.000014 -18.782463 -68.539077 31.556806 -44.693053 -4.939478 -1.249042 -0.422043 54.735616 30.000004 54.735606 -2.517294 0.000006 -2.517303 0.000000 0.000000 0.000001 -1.826109 -0.000009 -1.826110 0.000000 -0.000002 0.000000 -8.597691 -0.000003 -5.278137 0.000001 0.000000 0.000000 -2.302894 0.000004 -2.302898 -0.000000 -0.000003 -0.000001 -1.960185 0.000005 -1.960197 -0.000000 -0.000002 0.000001 -7.533895 -0.000008 -7.091236 0.000001 -0.000002 0.000000 -2.425844 -0.000003 -2.425830 0.000001 0.000007 -0.000001 -2.089239 -0.000005 -2.089218 0.000001 0.000005 0.000000 -5.804087 -0.000004 -8.321621 0.000001 0.000000 0.000000 -2.291875 -0.000002 -2.291884 -0.000000 0.000003 -0.000000 -1.953978 -0.000003 -1.953979 -0.000000 -0.000003 0.000000 -3.770282 -0.000006 -8.934917 0.000000 0.000000 -0.000000 -1.968670 0.000002 -1.968664 0.000000 0.000003 -0.000001 -1.410377 0.000002 -1.410392 0.000000 -0.000005 -0.000000 -0.000025 0.000022 9.994124 -11.724789 181.448893 12.870245 41.202606 0.000001 0.000002 0.000000 0.000000 -25.884865 40.704849 -0.000003 -0.000000 -7.818348 -1.730143 13.267012 8.953569 12.877171 -0.000000 -1.911317 -0.947673 93.347949 5.535660 -0.000000 0.000000 0.000000 0.000000 0.000000 0.000006 -0.000006 -9.994124 -7.132702 180.685920 9.409364 41.202606 -0.000003 0.000003 -0.000000 0.000000 -21.542458 40.704853 -0.000001 0.000002 4.223935 -1.154380 14.445464 8.953564 12.877173 -0.000002 3.134313 0.606959 94.209434 5.535675 -0.000001 -0.000002 -0.000000 0.000000 -0.000000 55.280914 0.000000 -0.964944 -0.000008 1.000000 -0.000000 
-3.968600 90.116272 78.371407 -2.527046 98.109636 95.383073 10.005944 -0.000012 0.000013 -5.487401 1.518478 5.083696 21.665010 -0.000004 0.000000 -6.402172 -0.987314 2.558505 25.832977 -0.000009 -0.000000 2.574303 -0.145453 -3.994311 14.033581 0.000003 -0.000000 2.555801 1.719378 -7.065817 21.600510 0.000001 0.000000 -0.000000 -0.000000 0.000000 21.664988 -0.000007 3.044999 3.550840 -18.148926 -7.120986 0.000027 0.000016 15.550007 -9.133709 -13.537234 9.938332 -19.070642 0.000004 19.070709 -16.851813 2.513993 -16.851815 -18.782482 0.000008 18.782467 74.941505 -33.642483 -57.802368 -4.939489 -1.249041 0.422042 54.735613 -30.000008 -54.735613 -2.517301 -0.000009 2.517295 0.000000 -0.000007 0.000000 -1.826110 0.000002 1.826115 0.000000 -0.000002 0.000000 -8.597696 0.000002 5.278137 0.000000 -0.000000 -0.000000 -2.302888 0.000003 2.302879 0.000001 -0.000010 -0.000000 -1.960197 -0.000003 1.960182 -0.000000 -0.000002 -0.000001 -7.533899 0.000003 7.091251 0.000000 -0.000000 0.000000 -2.425833 -0.000001 2.425842 0.000001 -0.000007 0.000001 -2.089236 -0.000001 2.089241 -0.000000 -0.000000 -0.000000 -5.804103 0.000001 8.321640 0.000000 -0.000000 0.000000 -2.291875 0.000001 2.291870 0.000000 -0.000010 0.000001 -1.953978 -0.000001 1.953972 -0.000000 -0.000002 -0.000000 -3.770286 0.000000 8.934914 -0.000000 -0.000000 0.000000 -1.968668 0.000003 1.968658 0.000000 -0.000005 -0.000001 -1.410396 -0.000001 1.410378 -0.000000 -0.000002 -0.000001 21.664974 -0.000003 -3.044999 9.910698 16.972515 -11.619015 0.000059 0.000013 -15.549992 -10.807635 15.392494 2.689039 -19.070631 -0.000000 -19.070711 16.467741 -2.399169 -16.467743 -18.782478 -0.000002 -18.782461 -70.432692 33.375904 -45.038862 -4.939486 -1.249045 -0.422039 54.735613 30.000001 54.735606 -2.517300 0.000008 -2.517299 -0.000002 0.000002 0.000001 -1.826113 -0.000009 -1.826107 -0.000000 -0.000007 -0.000001 -8.597700 -0.000005 -5.278130 -0.000001 -0.000002 -0.000001 -2.302881 0.000000 -2.302875 -0.000001 0.000003 0.000001 -1.960195 -0.000002 -1.960213 0.000000 -0.000007 0.000000 -7.533900 -0.000002 -7.091248 -0.000000 -0.000002 -0.000002 -2.425836 0.000005 -2.425838 -0.000000 0.000009 0.000001 -2.089248 0.000005 -2.089249 0.000001 0.000002 0.000000 -5.804095 -0.000006 -8.321621 -0.000001 -0.000002 -0.000001 -2.291881 0.000002 -2.291870 -0.000001 0.000003 0.000002 -1.953987 0.000001 -1.953987 -0.000000 -0.000007 0.000000 -3.770284 -0.000005 -8.934917 -0.000000 -0.000002 -0.000001 -1.968659 0.000001 -1.968681 -0.000001 0.000003 0.000000 -1.410381 0.000002 -1.410393 0.000000 0.000000 -0.000001 -0.000024 0.000005 9.994124 -11.765250 181.882706 14.693547 41.202610 0.000002 -0.000001 0.000000 0.000000 -28.066176 40.704849 -0.000008 0.000000 -8.244688 -1.990615 13.815778 8.953568 12.877192 -0.000000 -1.880658 -0.947392 93.552118 5.535675 -0.000000 -0.000000 0.000000 -0.000000 0.000000 0.000010 -0.000021 -9.994126 -6.296939 181.070842 11.202978 41.202606 0.000002 -0.000000 0.000000 0.000000 -23.349662 40.704842 -0.000019 -0.000000 4.647651 -1.111442 14.762412 8.953566 12.877179 0.000000 3.205641 0.650738 94.465560 5.535667 -0.000000 -0.000000 -0.000000 -0.000000 -0.000000 55.280914 0.000000 -0.964944 -0.000008 1.000000 -0.000000 
